<svg width="19" height="20" viewBox="0 0 19 20" fill="none" xmlns="http://www.w3.org/2000/svg">
<path d="M16.6562 11.0547C16.8125 10.1432 16.8125 9.23177 16.6562 8.32031L18.2969 7.34375C18.401 7.29167 18.4727 7.21354 18.5117 7.10938C18.5508 7.00521 18.5573 6.90104 18.5312 6.79688C18.0885 5.41667 17.3724 4.19271 16.3828 3.125C16.3047 3.04688 16.2135 2.99479 16.1094 2.96875C16.0052 2.94271 15.901 2.95573 15.7969 3.00781L14.1562 3.98438C13.4531 3.38542 12.6589 2.92969 11.7734 2.61719V0.703125C11.7734 0.598957 11.7409 0.501301 11.6758 0.410156C11.6107 0.319012 11.526 0.260418 11.4219 0.234375C9.98958 -0.078125 8.55729 -0.078125 7.125 0.234375C7.02083 0.260418 6.9362 0.319012 6.87109 0.410156C6.80599 0.501301 6.77344 0.598957 6.77344 0.703125V2.61719C5.88802 2.92969 5.09375 3.38542 4.39062 3.98438L2.75 3.00781C2.64583 2.95573 2.54167 2.94271 2.4375 2.96875C2.33333 2.99479 2.24219 3.04688 2.16406 3.125C1.17448 4.19271 0.458333 5.41667 0.0156251 6.79688C-0.0104168 6.90104 -0.00390611 7.00521 0.0351564 7.10938C0.0742189 7.21354 0.145833 7.29167 0.25 7.34375L1.89063 8.32031C1.73438 9.23177 1.73438 10.1432 1.89063 11.0547L0.25 12.0312C0.145833 12.0833 0.0742189 12.1615 0.0351564 12.2656C-0.00390611 12.3698 -0.0104168 12.474 0.0156251 12.5781C0.458333 13.9583 1.17448 15.1823 2.16406 16.25C2.24219 16.3281 2.33333 16.3802 2.4375 16.4062C2.54167 16.4323 2.64583 16.4193 2.75 16.3672L4.39062 15.3906C5.09375 15.9896 5.88802 16.4453 6.77344 16.7578V18.6719C6.77344 18.776 6.80599 18.8737 6.87109 18.9648C6.9362 19.056 7.02083 19.1146 7.125 19.1406C8.55729 19.4531 9.98958 19.4531 11.4219 19.1406C11.526 19.1146 11.6107 19.056 11.6758 18.9648C11.7409 18.8737 11.7734 18.776 11.7734 18.6719V16.7578C12.6589 16.4453 13.4531 15.9896 14.1562 15.3906L15.7969 16.3672C15.901 16.4193 16.0052 16.4323 16.1094 16.4062C16.2135 16.3802 16.3047 16.3281 16.3828 16.25C17.3724 15.1823 18.0885 13.9583 18.5312 12.5781C18.5573 12.474 18.5508 12.3698 18.5117 12.2656C18.4727 12.1615 18.401 12.0833 18.2969 12.0312L16.6562 11.0547ZM12.3984 9.6875C12.3984 10.5469 12.0924 11.2826 11.4805 11.8945C10.8685 12.5065 10.1328 12.8125 9.27344 12.8125C8.41406 12.8125 7.67839 12.5065 7.06641 11.8945C6.45443 11.2826 6.14844 10.5469 6.14844 9.6875C6.14844 8.82812 6.45443 8.09245 7.06641 7.48047C7.67839 6.86849 8.41406 6.5625 9.27344 6.5625C10.1328 6.5625 10.8685 6.86849 11.4805 7.48047C12.0924 8.09245 12.3984 8.82812 12.3984 9.6875Z" fill="url(#paint0_linear_1_1511)"/>
<defs>
<linearGradient id="paint0_linear_1_1511" x1="4.63672" y1="4.84375" x2="4.63672" y2="4.84375" gradientUnits="userSpaceOnUse">
<stop offset="1" stop-color="#FF6A00"/>
<stop stop-color="#EE0979"/>
</linearGradient>
</defs>
</svg>
